<svg xmlns="http://www.w3.org/2000/svg" width="159" height="57.969" viewBox="0 0 159 57.969">
  <metadata><?xpacket begin="﻿" id="W5M0MpCehiHzreSzNTczkc9d"?>
<x:xmpmeta xmlns:x="adobe:ns:meta/" x:xmptk="Adobe XMP Core 5.6-c138 79.159824, 2016/09/14-01:09:01        ">
   <rdf:RDF xmlns:rdf="http://www.w3.org/1999/02/22-rdf-syntax-ns#">
      <rdf:Description rdf:about=""/>
   </rdf:RDF>
</x:xmpmeta>
                                                                                                    
                                                                                                    
                                                                                                    
                                                                                                    
                                                                                                    
                                                                                                    
                                                                                                    
                                                                                                    
                                                                                                    
                                                                                                    
                                                                                                    
                                                                                                    
                                                                                                    
                                                                                                    
                                                                                                    
                                                                                                    
                                                                                                    
                                                                                                    
                                                                                                    
                                                                                                    
                           
<?xpacket end="w"?></metadata>
<defs>
    <style>
      .cls-1 {
        fill: #095dbb;
        fill-rule: evenodd;
      }
    </style>
  </defs>
  <path id="лого" class="cls-1" d="M134.774,69.156C142.268,69.156,148.649,64.5,150,58V69h6V56c0-.609-0.025-2.126,0-2.751,0.124-4.057,2.786-6.479,7.022-6.55A14.629,14.629,0,1,0,189.7,57.407v0.032c0,7.02,5.652,11.8,12.445,11.8a11.355,11.355,0,0,0,7.775-3.494L210,68h7V54c0-.274-0.011-0.773,0-1,0.17-4.655,2.24-6.59,5.243-6.59,2.979,0,5.655.962,5.757,5.59,0.021,0.4,0,1.547,0,2V68h7V58c1.287,7.027,7.094,11.155,14.2,11.155,8.043,0,11.583-4.781,12.8-10.155h-6c-0.585,1.911-2.664,4.488-6.8,4.488-3.728,0-6.4-2.344-7.2-6.488h22V68h6V55c0-.61-0.015-1.375,0-2,0.136-4.123,3.557-6.306,7.9-6.306l1.1,0.444V40.569l-1.1-.413c-9.092,0-13.933,5.093-14.124,11.686A14.528,14.528,0,0,0,249.2,39.978a14.282,14.282,0,0,0-14.343,11.8,11.62,11.62,0,0,0-11.38-11.792c-2.8,0-4.534,1.137-6.475,3.01V34h-7V55a13.989,13.989,0,0,1,0,2c-0.416,4.254-3.87,6-7,6-3.247,0-6.238-1.835-6.33-6.637C196.655,55.53,197,55.59,197,55V47h11V41H197V34h-7V51c-1.313-6.724-7.543-11.011-14.667-11.011-4.589,0-8.646,2.715-11.333,6.011V41l-1.235-.431c-8.939,0-12.815,4.513-13.158,10.949a14.333,14.333,0,0,0-14.036-11.362A11.966,11.966,0,0,0,127,44V34h-7V51.517c0,1.274.375,1.929,0.387,3.08C120.476,62.595,126.091,69.156,134.774,69.156ZM249.2,45.746c4.34,0,7.3,4.084,7.8,6.253H242C243.125,48.511,245.822,45.746,249.2,45.746Zm-73.865.869a7.983,7.983,0,1,1-8,7.982A7.871,7.871,0,0,1,175.333,46.615Zm-40.559,0a7.983,7.983,0,1,1-7.993,7.982A7.866,7.866,0,0,1,134.774,46.615Zm18.838,37.037a1.9,1.9,0,0,1-.089.606,2.645,2.645,0,0,1-2.578,1.757,1.687,1.687,0,0,1-1.778-1.822c0-2.038,2.363-2.411,4.445-2.366v1.825Zm1.6-3.733c0-2.1-.518-3.471-3.751-3.471a6.8,6.8,0,0,0-3.468.909l0.433,1.28a5.083,5.083,0,0,1,2.753-.78,2.155,2.155,0,0,1,2.385,2.43V80.5c-4.054-.02-6.311,1.37-6.311,3.91a3,3,0,0,0,3.211,3.016,3.87,3.87,0,0,0,3.209-1.568h0.065l0.174,1.33h1.713a22.673,22.673,0,0,1-.413-3V79.919ZM161,75v2l2.35-.315-0.666,1.1L161,78v6c0,1.591.185,1.84,1.087,1.84a4.294,4.294,0,0,0,1.067-.126l0.086,1.451a5.056,5.056,0,0,1-1.689.263c-1.69,0-2.551-1.185-2.551-3.428V78h-2V77h2V75h2Zm10,2,2.279,5.891c0.256,0.7.5,1.448,0.676,2.078H174c0.194-.631.428-1.361,0.688-2.122L177,77h2l-3.077,7.172c-1.363,3.6-2.3,5.447-3.6,6.594a5.406,5.406,0,0,1-2.34,1.218l-0.475-1.606a4.386,4.386,0,0,0,1.669-.933,6.046,6.046,0,0,0,1.6-2.129,1.243,1.243,0,0,0,.151-0.454,1.189,1.189,0,0,0-.151-0.477L169,77h2Zm13.224,9.046c-1.843,0-3.142-1.763-3.142-4.086,0-2.017.977-4.133,3.208-4.133,2.254,0,3.144,2.27,3.144,4.067,0,2.411-1.364,4.151-3.189,4.151h-0.021Zm-0.041,1.382c2.491,0,5.2-1.692,5.2-5.6,0-3.189-2.037-5.379-5.05-5.379-2.887,0-5.207,2.062-5.207,5.574,0,3.323,2.213,5.405,5.032,5.405h0.023Zm15.85-3.1c0,1.085.021,2.042,0.087,2.867h-1.664l-0.1-1.715h-0.045a3.921,3.921,0,0,1-3.469,1.953c-1.648,0-3.837-.763-3.837-4.428V77h2l0.091,5.479c0,2.078.664,3.378,2.376,3.378a2.76,2.76,0,0,0,2.515-1.771A3.655,3.655,0,0,0,198,83V77h2Zm2.945-4.362c0-1.235.095-1.983,0.022-2.961h2v2l-0.223-.251a3.451,3.451,0,0,1,3.215-2.3,2.293,2.293,0,0,1,.575.064v1.78a7.074,7.074,0,0,0-.736-0.043,2.845,2.845,0,0,0-2.819,2.43,5.637,5.637,0,0,0-.074.911L205,87h-2Zm9.838,5.39a8.022,8.022,0,0,0,2.862.645c1.5,0,2.378-.675,2.378-1.564,0-.791-0.523-1.238-2.5-1.926-2.087-.73-2.966-1.669-2.966-2.939,0-1.692,1.2-3.119,3.906-3.119a6.342,6.342,0,0,1,2.873.631l-0.493,1.3a5.645,5.645,0,0,0-2.408-.525c-1.363,0-2.119.734-2.119,1.434,0,0.729.367,1.023,2.435,1.741,2.176,0.744,3.034,1.7,3.034,3.187,0,1.865-1.417,3.208-4.188,3.208a7.543,7.543,0,0,1-3.332-.719ZM222,87V77h2V87h-2Zm0.976-12a1.005,1.005,0,0,1,.034-2.01,0.956,0.956,0,0,1,.983,1,0.972,0.972,0,0,1-1,1.014h-0.017Zm11,7.781a3.543,3.543,0,0,1-.086.826,2.9,2.9,0,0,1-2.8,2.276c-2.038,0-3.1-1.758-3.1-3.9,0-2.3,1.172-4.036,3.145-4.036a2.814,2.814,0,0,1,2.753,2.192,3.779,3.779,0,0,1,.086.822v1.825ZM234,73l-0.021,5.034h-0.044a3.485,3.485,0,0,0-3.164-1.585c-2.537,0-4.727,2.126-4.707,5.64,0,3.191,1.97,5.34,4.509,5.34a3.848,3.848,0,0,0,3.557-2.062h0.044L234,87l1.927,0.19C235.865,86.471,236,85.932,236,85V73h-2Zm5.373,7.915c0.151-1.32.978-3.1,2.927-3.1,2.126,0,2.647,1.911,2.628,3.1h-5.555Zm7.332,1.382a5.081,5.081,0,0,0,.064-0.9c0-1.931-.891-4.944-4.316-4.944-3.056,0-4.943,2.5-4.943,5.685,0,3.148,1.953,5.295,5.163,5.295a7.978,7.978,0,0,0,3.5-.7l-0.343-1.321a7.174,7.174,0,0,1-2.9.52,3.334,3.334,0,0,1-3.577-3.631h7.35Z" transform="translate(-120 -34)"/>
</svg>
